<?xml version="1.0" encoding="UTF-8" standalone="no"?><svg xmlns="http://www.w3.org/2000/svg" xmlns:xlink="http://www.w3.org/1999/xlink" contentScriptType="application/ecmascript" contentStyleType="text/css" height="673px" preserveAspectRatio="none" style="width:1440px;height:673px;" version="1.1" viewBox="0 0 1440 673" width="1440px" zoomAndPan="magnify"><defs><filter height="300%" id="f1hhcmvkg4k7t5" width="300%" x="-1" y="-1"><feGaussianBlur result="blurOut" stdDeviation="2.0"/><feColorMatrix in="blurOut" result="blurOut2" type="matrix" values="0 0 0 0 0 0 0 0 0 0 0 0 0 0 0 0 0 0 .4 0"/><feOffset dx="4.0" dy="4.0" in="blurOut2" result="blurOut3"/><feBlend in="SourceGraphic" in2="blurOut3" mode="normal"/></filter></defs><g><text fill="#000000" font-family="sans-serif" font-size="14" font-weight="bold" lengthAdjust="spacingAndGlyphs" textLength="112" x="663" y="23.5352">解析普通标签流程</text><rect fill="#FFFFFF" filter="url(#f1hhcmvkg4k7t5)" height="101.9316" style="stroke: #000000; stroke-width: 2.0;" width="293" x="389" y="209.9082"/><rect fill="#FFFFFF" filter="url(#f1hhcmvkg4k7t5)" height="101.9316" style="stroke: #000000; stroke-width: 2.0;" width="377.5" x="547" y="355.1504"/><line style="stroke: #A80036; stroke-width: 1.0; stroke-dasharray: 5.0,5.0;" x1="286" x2="286" y1="68.9766" y2="632.6348"/><line style="stroke: #A80036; stroke-width: 1.0; stroke-dasharray: 5.0,5.0;" x1="495" x2="495" y1="68.9766" y2="632.6348"/><line style="stroke: #A80036; stroke-width: 1.0; stroke-dasharray: 5.0,5.0;" x1="743" x2="743" y1="68.9766" y2="632.6348"/><line style="stroke: #A80036; stroke-width: 1.0; stroke-dasharray: 5.0,5.0;" x1="1006" x2="1006" y1="68.9766" y2="632.6348"/><line style="stroke: #A80036; stroke-width: 1.0; stroke-dasharray: 5.0,5.0;" x1="1228" x2="1228" y1="68.9766" y2="632.6348"/><rect fill="#FEFECE" filter="url(#f1hhcmvkg4k7t5)" height="30.4883" style="stroke: #A80036; stroke-width: 1.5;" width="202" x="183" y="33.4883"/><text fill="#000000" font-family="sans-serif" font-size="14" lengthAdjust="spacingAndGlyphs" textLength="188" x="190" y="54.0234">XmlWebApplicaitonContext</text><rect fill="#FEFECE" filter="url(#f1hhcmvkg4k7t5)" height="30.4883" style="stroke: #A80036; stroke-width: 1.5;" width="202" x="183" y="631.6348"/><text fill="#000000" font-family="sans-serif" font-size="14" lengthAdjust="spacingAndGlyphs" textLength="188" x="190" y="652.1699">XmlWebApplicaitonContext</text><rect fill="#FEFECE" filter="url(#f1hhcmvkg4k7t5)" height="30.4883" style="stroke: #A80036; stroke-width: 1.5;" width="188" x="399" y="33.4883"/><text fill="#000000" font-family="sans-serif" font-size="14" lengthAdjust="spacingAndGlyphs" textLength="174" x="406" y="54.0234">XmlBeanDefinitionReader</text><rect fill="#FEFECE" filter="url(#f1hhcmvkg4k7t5)" height="30.4883" style="stroke: #A80036; stroke-width: 1.5;" width="188" x="399" y="631.6348"/><text fill="#000000" font-family="sans-serif" font-size="14" lengthAdjust="spacingAndGlyphs" textLength="174" x="406" y="652.1699">XmlBeanDefinitionReader</text><rect fill="#FEFECE" filter="url(#f1hhcmvkg4k7t5)" height="30.4883" style="stroke: #A80036; stroke-width: 1.5;" width="281" x="601" y="33.4883"/><text fill="#000000" font-family="sans-serif" font-size="14" lengthAdjust="spacingAndGlyphs" textLength="267" x="608" y="54.0234">DefaultBeanDefinitionDocumentReader</text><rect fill="#FEFECE" filter="url(#f1hhcmvkg4k7t5)" height="30.4883" style="stroke: #A80036; stroke-width: 1.5;" width="281" x="601" y="631.6348"/><text fill="#000000" font-family="sans-serif" font-size="14" lengthAdjust="spacingAndGlyphs" textLength="267" x="608" y="652.1699">DefaultBeanDefinitionDocumentReader</text><rect fill="#FEFECE" filter="url(#f1hhcmvkg4k7t5)" height="30.4883" style="stroke: #A80036; stroke-width: 1.5;" width="217" x="896" y="33.4883"/><text fill="#000000" font-family="sans-serif" font-size="14" lengthAdjust="spacingAndGlyphs" textLength="203" x="903" y="54.0234">BeanDefinitionParserDelegate</text><rect fill="#FEFECE" filter="url(#f1hhcmvkg4k7t5)" height="30.4883" style="stroke: #A80036; stroke-width: 1.5;" width="217" x="896" y="631.6348"/><text fill="#000000" font-family="sans-serif" font-size="14" lengthAdjust="spacingAndGlyphs" textLength="203" x="903" y="652.1699">BeanDefinitionParserDelegate</text><rect fill="#FEFECE" filter="url(#f1hhcmvkg4k7t5)" height="30.4883" style="stroke: #A80036; stroke-width: 1.5;" width="198" x="1127" y="33.4883"/><text fill="#000000" font-family="sans-serif" font-size="14" lengthAdjust="spacingAndGlyphs" textLength="184" x="1134" y="54.0234">DefaultListableBeanFactory</text><rect fill="#FEFECE" filter="url(#f1hhcmvkg4k7t5)" height="30.4883" style="stroke: #A80036; stroke-width: 1.5;" width="198" x="1127" y="631.6348"/><text fill="#000000" font-family="sans-serif" font-size="14" lengthAdjust="spacingAndGlyphs" textLength="184" x="1134" y="652.1699">DefaultListableBeanFactory</text><line style="stroke: #A80036; stroke-width: 1.0;" x1="286" x2="328" y1="100.2871" y2="100.2871"/><line style="stroke: #A80036; stroke-width: 1.0;" x1="328" x2="328" y1="100.2871" y2="113.2871"/><line style="stroke: #A80036; stroke-width: 1.0;" x1="287" x2="328" y1="113.2871" y2="113.2871"/><polygon fill="#A80036" points="297,109.2871,287,113.2871,297,117.2871,293,113.2871" style="stroke: #A80036; stroke-width: 1.0;"/><text fill="#000000" font-family="sans-serif" font-size="13" font-weight="bold" lengthAdjust="spacingAndGlyphs" textLength="9" x="293" y="95.5449">1</text><text fill="#000000" font-family="sans-serif" font-size="13" lengthAdjust="spacingAndGlyphs" textLength="127" x="306" y="95.5449">refreshBeanFactory()</text><polygon fill="#FBFB77" filter="url(#f1hhcmvkg4k7t5)" points="8,85.4766,8,110.4766,277,110.4766,277,95.4766,267,85.4766,8,85.4766" style="stroke: #A80036; stroke-width: 1.0;"/><line style="stroke: #A80036; stroke-width: 1.0;" x1="267" x2="267" y1="85.4766" y2="95.4766"/><line style="stroke: #A80036; stroke-width: 1.0;" x1="277" x2="267" y1="95.4766" y2="95.4766"/><text fill="#000000" font-family="sans-serif" font-size="13" lengthAdjust="spacingAndGlyphs" textLength="248" x="14" y="103.0449">AbstractRefreshableApplicationContext</text><line style="stroke: #A80036; stroke-width: 1.0;" x1="286" x2="328" y1="142.5977" y2="142.5977"/><line style="stroke: #A80036; stroke-width: 1.0;" x1="328" x2="328" y1="142.5977" y2="155.5977"/><line style="stroke: #A80036; stroke-width: 1.0;" x1="287" x2="328" y1="155.5977" y2="155.5977"/><polygon fill="#A80036" points="297,151.5977,287,155.5977,297,159.5977,293,155.5977" style="stroke: #A80036; stroke-width: 1.0;"/><text fill="#000000" font-family="sans-serif" font-size="13" font-weight="bold" lengthAdjust="spacingAndGlyphs" textLength="9" x="293" y="137.8555">2</text><text fill="#000000" font-family="sans-serif" font-size="13" lengthAdjust="spacingAndGlyphs" textLength="134" x="306" y="137.8555">loadBeanDefinitions()</text><polygon fill="#A80036" points="483,185.5977,493,189.5977,483,193.5977,487,189.5977" style="stroke: #A80036; stroke-width: 1.0;"/><line style="stroke: #A80036; stroke-width: 1.0;" x1="286" x2="489" y1="189.5977" y2="189.5977"/><text fill="#000000" font-family="sans-serif" font-size="13" font-weight="bold" lengthAdjust="spacingAndGlyphs" textLength="9" x="293" y="185.166">3</text><text fill="#000000" font-family="sans-serif" font-size="13" lengthAdjust="spacingAndGlyphs" textLength="171" x="306" y="185.166">loadBeanDefinitions(String)</text><polygon fill="#FBFB77" filter="url(#f1hhcmvkg4k7t5)" points="69,168.5977,69,193.5977,277,193.5977,277,178.5977,267,168.5977,69,168.5977" style="stroke: #A80036; stroke-width: 1.0;"/><line style="stroke: #A80036; stroke-width: 1.0;" x1="267" x2="267" y1="168.5977" y2="178.5977"/><line style="stroke: #A80036; stroke-width: 1.0;" x1="277" x2="267" y1="178.5977" y2="178.5977"/><text fill="#000000" font-family="sans-serif" font-size="13" lengthAdjust="spacingAndGlyphs" textLength="187" x="75" y="186.166">AbstractBeanDefinitionReader</text><rect fill="none" height="101.9316" style="stroke: #000000; stroke-width: 2.0;" width="293" x="389" y="209.9082"/><polygon fill="#EEEEEE" points="389,209.9082,600,209.9082,600,216.9082,590,226.9082,389,226.9082,389,209.9082" style="stroke: #000000; stroke-width: 2.0;"/><text fill="#000000" font-family="sans-serif" font-size="13" font-weight="bold" lengthAdjust="spacingAndGlyphs" textLength="166" x="404" y="223.4766">doLoadBeanDefinitions()</text><line style="stroke: #A80036; stroke-width: 1.0;" x1="495" x2="537" y1="248.5293" y2="248.5293"/><line style="stroke: #A80036; stroke-width: 1.0;" x1="537" x2="537" y1="248.5293" y2="261.5293"/><line style="stroke: #A80036; stroke-width: 1.0;" x1="496" x2="537" y1="261.5293" y2="261.5293"/><polygon fill="#A80036" points="506,257.5293,496,261.5293,506,265.5293,502,261.5293" style="stroke: #A80036; stroke-width: 1.0;"/><text fill="#000000" font-family="sans-serif" font-size="13" font-weight="bold" lengthAdjust="spacingAndGlyphs" textLength="9" x="502" y="243.7871">4</text><text fill="#000000" font-family="sans-serif" font-size="13" lengthAdjust="spacingAndGlyphs" textLength="119" x="515" y="243.7871">doLoadDocument()</text><line style="stroke: #A80036; stroke-width: 1.0;" x1="495" x2="537" y1="290.8398" y2="290.8398"/><line style="stroke: #A80036; stroke-width: 1.0;" x1="537" x2="537" y1="290.8398" y2="303.8398"/><line style="stroke: #A80036; stroke-width: 1.0;" x1="496" x2="537" y1="303.8398" y2="303.8398"/><polygon fill="#A80036" points="506,299.8398,496,303.8398,506,307.8398,502,303.8398" style="stroke: #A80036; stroke-width: 1.0;"/><text fill="#000000" font-family="sans-serif" font-size="13" font-weight="bold" lengthAdjust="spacingAndGlyphs" textLength="9" x="502" y="286.0977">5</text><text fill="#000000" font-family="sans-serif" font-size="13" lengthAdjust="spacingAndGlyphs" textLength="155" x="515" y="286.0977">registerBeanDefinitions()</text><polygon fill="#A80036" points="731.5,335.8398,741.5,339.8398,731.5,343.8398,735.5,339.8398" style="stroke: #A80036; stroke-width: 1.0;"/><line style="stroke: #A80036; stroke-width: 1.0;" x1="495" x2="737.5" y1="339.8398" y2="339.8398"/><text fill="#000000" font-family="sans-serif" font-size="13" font-weight="bold" lengthAdjust="spacingAndGlyphs" textLength="9" x="502" y="335.4082">6</text><text fill="#000000" font-family="sans-serif" font-size="13" lengthAdjust="spacingAndGlyphs" textLength="155" x="515" y="335.4082">registerBeanDefinitions()</text><rect fill="none" height="101.9316" style="stroke: #000000; stroke-width: 2.0;" width="377.5" x="547" y="355.1504"/><polygon fill="#EEEEEE" points="547,355.1504,771,355.1504,771,362.1504,761,372.1504,547,372.1504,547,355.1504" style="stroke: #000000; stroke-width: 2.0;"/><text fill="#000000" font-family="sans-serif" font-size="13" font-weight="bold" lengthAdjust="spacingAndGlyphs" textLength="179" x="562" y="368.7188">doRegisterBeanDefinitions</text><line style="stroke: #A80036; stroke-width: 1.0;" x1="743.5" x2="785.5" y1="393.7715" y2="393.7715"/><line style="stroke: #A80036; stroke-width: 1.0;" x1="785.5" x2="785.5" y1="393.7715" y2="406.7715"/><line style="stroke: #A80036; stroke-width: 1.0;" x1="744.5" x2="785.5" y1="406.7715" y2="406.7715"/><polygon fill="#A80036" points="754.5,402.7715,744.5,406.7715,754.5,410.7715,750.5,406.7715" style="stroke: #A80036; stroke-width: 1.0;"/><text fill="#000000" font-family="sans-serif" font-size="13" font-weight="bold" lengthAdjust="spacingAndGlyphs" textLength="9" x="750.5" y="389.0293">7</text><text fill="#000000" font-family="sans-serif" font-size="13" lengthAdjust="spacingAndGlyphs" textLength="141" x="763.5" y="389.0293">parseBeanDefinitions()</text><polygon fill="#FBFB77" filter="url(#f1hhcmvkg4k7t5)" points="557,378.9609,557,403.9609,734,403.9609,734,388.9609,724,378.9609,557,378.9609" style="stroke: #A80036; stroke-width: 1.0;"/><line style="stroke: #A80036; stroke-width: 1.0;" x1="724" x2="724" y1="378.9609" y2="388.9609"/><line style="stroke: #A80036; stroke-width: 1.0;" x1="734" x2="724" y1="388.9609" y2="388.9609"/><text fill="#000000" font-family="sans-serif" font-size="13" lengthAdjust="spacingAndGlyphs" textLength="156" x="563" y="396.5293">解析普通元素或自定义元素</text><line style="stroke: #A80036; stroke-width: 1.0;" x1="743.5" x2="785.5" y1="436.082" y2="436.082"/><line style="stroke: #A80036; stroke-width: 1.0;" x1="785.5" x2="785.5" y1="436.082" y2="449.082"/><line style="stroke: #A80036; stroke-width: 1.0;" x1="744.5" x2="785.5" y1="449.082" y2="449.082"/><polygon fill="#A80036" points="754.5,445.082,744.5,449.082,754.5,453.082,750.5,449.082" style="stroke: #A80036; stroke-width: 1.0;"/><text fill="#000000" font-family="sans-serif" font-size="13" font-weight="bold" lengthAdjust="spacingAndGlyphs" textLength="9" x="750.5" y="431.3398">8</text><text fill="#000000" font-family="sans-serif" font-size="13" lengthAdjust="spacingAndGlyphs" textLength="149" x="763.5" y="431.3398">processBeanDefinition()</text><polygon fill="#A80036" points="994.5,481.082,1004.5,485.082,994.5,489.082,998.5,485.082" style="stroke: #A80036; stroke-width: 1.0;"/><line style="stroke: #A80036; stroke-width: 1.0;" x1="743.5" x2="1000.5" y1="485.082" y2="485.082"/><text fill="#000000" font-family="sans-serif" font-size="13" font-weight="bold" lengthAdjust="spacingAndGlyphs" textLength="9" x="750.5" y="480.6504">9</text><text fill="#000000" font-family="sans-serif" font-size="13" lengthAdjust="spacingAndGlyphs" textLength="184" x="763.5" y="480.6504">parseBeanDefinitionElement()</text><line style="stroke: #A80036; stroke-width: 1.0;" x1="1006.5" x2="1048.5" y1="530.0137" y2="530.0137"/><line style="stroke: #A80036; stroke-width: 1.0;" x1="1048.5" x2="1048.5" y1="530.0137" y2="543.0137"/><line style="stroke: #A80036; stroke-width: 1.0;" x1="1007.5" x2="1048.5" y1="543.0137" y2="543.0137"/><polygon fill="#A80036" points="1017.5,539.0137,1007.5,543.0137,1017.5,547.0137,1013.5,543.0137" style="stroke: #A80036; stroke-width: 1.0;"/><text fill="#000000" font-family="sans-serif" font-size="13" font-weight="bold" lengthAdjust="spacingAndGlyphs" textLength="18" x="1013.5" y="517.6162">10</text><text fill="#000000" font-family="sans-serif" font-size="13" lengthAdjust="spacingAndGlyphs" textLength="167" x="1035.5" y="509.9609">BeanDefinitionReaderUtils.</text><text fill="#000000" font-family="sans-serif" font-size="13" lengthAdjust="spacingAndGlyphs" textLength="148" x="1039.5" y="525.2715">registerBeanDefinition()</text><polygon fill="#A80036" points="1216,568.0137,1226,572.0137,1216,576.0137,1220,572.0137" style="stroke: #A80036; stroke-width: 1.0;"/><line style="stroke: #A80036; stroke-width: 1.0;" x1="1006.5" x2="1222" y1="572.0137" y2="572.0137"/><text fill="#000000" font-family="sans-serif" font-size="13" font-weight="bold" lengthAdjust="spacingAndGlyphs" textLength="18" x="1013.5" y="567.582">11</text><text fill="#000000" font-family="sans-serif" font-size="13" lengthAdjust="spacingAndGlyphs" textLength="140" x="1035.5" y="567.582">registerBeanDefinition</text><line style="stroke: #A80036; stroke-width: 1.0;" x1="1228" x2="1270" y1="601.6348" y2="601.6348"/><line style="stroke: #A80036; stroke-width: 1.0;" x1="1270" x2="1270" y1="601.6348" y2="614.6348"/><line style="stroke: #A80036; stroke-width: 1.0;" x1="1229" x2="1270" y1="614.6348" y2="614.6348"/><polygon fill="#A80036" points="1239,610.6348,1229,614.6348,1239,618.6348,1235,614.6348" style="stroke: #A80036; stroke-width: 1.0;"/><text fill="#000000" font-family="sans-serif" font-size="13" font-weight="bold" lengthAdjust="spacingAndGlyphs" textLength="18" x="1235" y="596.8926">12</text><text fill="#000000" font-family="sans-serif" font-size="13" lengthAdjust="spacingAndGlyphs" textLength="171" x="1257" y="596.8926">注册到beanDefinitionMap中</text><!--
@startuml
title 解析普通标签流程
autonumber 1 1
XmlWebApplicaitonContext -> XmlWebApplicaitonContext:refreshBeanFactory()
note left:AbstractRefreshableApplicationContext
XmlWebApplicaitonContext -> XmlWebApplicaitonContext:loadBeanDefinitions()
XmlWebApplicaitonContext -> XmlBeanDefinitionReader:loadBeanDefinitions(String)
note left:AbstractBeanDefinitionReader
group doLoadBeanDefinitions()
XmlBeanDefinitionReader -> XmlBeanDefinitionReader:doLoadDocument()
XmlBeanDefinitionReader -> XmlBeanDefinitionReader:registerBeanDefinitions()
end
XmlBeanDefinitionReader -> DefaultBeanDefinitionDocumentReader:registerBeanDefinitions()
group doRegisterBeanDefinitions
DefaultBeanDefinitionDocumentReader ->DefaultBeanDefinitionDocumentReader:parseBeanDefinitions()
note left:解析普通元素或自定义元素
DefaultBeanDefinitionDocumentReader ->DefaultBeanDefinitionDocumentReader:processBeanDefinition()
end
DefaultBeanDefinitionDocumentReader ->BeanDefinitionParserDelegate:parseBeanDefinitionElement()
BeanDefinitionParserDelegate ->BeanDefinitionParserDelegate:BeanDefinitionReaderUtils. \n registerBeanDefinition()
BeanDefinitionParserDelegate -> DefaultListableBeanFactory:registerBeanDefinition
DefaultListableBeanFactory -> DefaultListableBeanFactory:注册到beanDefinitionMap中
@enduml

PlantUML version 1.2017.15(Tue Jul 04 00:45:34 CST 2017)
(GPL source distribution)
Java Runtime: OpenJDK Runtime Environment
JVM: OpenJDK 64-Bit Server VM
Java Version: 1.8.0_112-release-408-b2
Operating System: Mac OS X
OS Version: 10.13.6
Default Encoding: UTF-8
Language: zh
Country: CN
--></g></svg>